<?xml version="1.0" encoding="utf-8"?>
<!-- Generator: Adobe Illustrator 23.1.0, SVG Export Plug-In . SVG Version: 6.00 Build 0)  -->
<svg version="1.1" id="calendar" xmlns="http://www.w3.org/2000/svg" xmlns:xlink="http://www.w3.org/1999/xlink" x="0px" y="0px"
	 viewBox="0 0 1024 1024" style="enable-background:new 0 0 1024 1024;" xml:space="preserve">
<path id="Trazado_2036" d="M887.9,83.8h-91V36.3c-0.9-17.5-15.8-30.9-33.3-30c-16.2,0.8-29.2,13.8-30,30v47.5H290.3V36.3
	c-0.9-17.5-15.8-30.9-33.3-30c-16.2,0.8-29.2,13.8-30,30v47.5h-91C63.9,83.8,5.5,142.3,5.4,214.4v672.7
	c0,72.1,58.5,130.6,130.6,130.6h751.9c72.1,0,130.6-58.5,130.6-130.6V214.4C1018.5,142.3,960,83.8,887.9,83.8z M136,147.1h91.1v31.7
	c-0.9,17.5,12.6,32.4,30,33.3c17.5,0.9,32.4-12.6,33.3-30c0.1-1.1,0.1-2.2,0-3.2v-31.7h443.3v31.7c0.9,17.5,15.8,30.9,33.3,30
	c16.2-0.8,29.2-13.8,30-30v-31.7h91c37.1,0,67.2,30.1,67.2,67.2v75.2H68.7v-75.1C68.7,177.2,98.9,147.1,136,147.1L136,147.1z
	 M887.9,954.4H136.1c-37.1,0-67.2-30.1-67.2-67.2V352.8h886.7V887c0,37.2-30.1,67.3-67.3,67.3C888.1,954.4,888,954.4,887.9,954.4z"
	/>
</svg>
