<?xml version="1.0" encoding="utf-8"?>
<!-- Generator: Adobe Illustrator 23.1.0, SVG Export Plug-In . SVG Version: 6.00 Build 0)  -->
<svg version="1.1" id="Grupo_1468" xmlns="http://www.w3.org/2000/svg" xmlns:xlink="http://www.w3.org/1999/xlink" x="0px" y="0px"
	 viewBox="0 0 1024 1024" style="enable-background:new 0 0 1024 1024;" xml:space="preserve">
<style type="text/css">
	.st0{fill:#161716;}
</style>
<path id="Trazado_256" class="st0" d="M1006.3,261.9c-10.8-6.7-24.2-7.3-35.6-1.6L731.2,379.9v-87.1c0-60.5-49.1-109.6-109.6-109.6
	H110c-60.5,0-109.6,49.1-109.6,109.6v438.3c0,60.5,49.1,109.6,109.6,109.6h511.6c60.5,0,109.6-49.1,109.6-109.6v-86.9l239.5,119.9
	c18,9,40,1.7,49-16.3c2.6-5.1,3.9-10.8,3.9-16.5V293C1023.6,280.4,1017.1,268.6,1006.3,261.9z"/>
</svg>
