<?xml version="1.0" encoding="utf-8"?>
<!-- Generator: Adobe Illustrator 23.1.0, SVG Export Plug-In . SVG Version: 6.00 Build 0)  -->
<svg version="1.1" id="Capa_1" xmlns="http://www.w3.org/2000/svg" xmlns:xlink="http://www.w3.org/1999/xlink" x="0px" y="0px"
	 viewBox="0 0 1024 1024" style="enable-background:new 0 0 1024 1024;" xml:space="preserve">
<style type="text/css">
	.st0{fill:#161716;}
</style>
<g id="eye_1_" transform="translate(0 -92.835)">
	<g id="Grupo_1724" transform="translate(0 92.835)">
		<g id="Grupo_1723" transform="translate(0 0)">
			<path id="Trazado_341" class="st0" d="M1013.4,492.2c-9.1-12.4-225.5-304.2-501.8-304.2S19,479.8,9.9,492.2
				c-8.6,11.8-8.6,27.8,0,39.6c9.1,12.4,225.5,304.2,501.8,304.2s492.7-291.7,501.8-304.1C1022.6,519.8,1023.2,503.7,1013.4,492.2z
				 M511.7,768.9c-203.5,0-379.8-193.6-432-256.9c52.1-63.4,228-256.9,432-256.9s379.8,193.6,432,256.9
				C891.6,575.3,715.7,768.9,511.7,768.9L511.7,768.9z"/>
		</g>
	</g>
	<g id="Grupo_1726" transform="translate(6.204 95.317)">
		<g id="Grupo_1725" transform="translate(0 0)">
			<path id="Trazado_342" class="st0" d="M505.5,308.4c-111,0-201,90-201,201c0,111,90,201,201,201c111,0,201-90,201-201
				C706.4,398.5,616.5,308.6,505.5,308.4z M505.5,643.6c-74,0-134-60-134-134s60-134,134-134s134,60,134,134
				C639.4,583.5,579.5,643.5,505.5,643.6z"/>
		</g>
	</g>
</g>
</svg>
