<?xml version="1.0" encoding="utf-8"?>
<!-- Generator: Adobe Illustrator 23.1.0, SVG Export Plug-In . SVG Version: 6.00 Build 0)  -->
<svg version="1.1" id="Capa_1" xmlns="http://www.w3.org/2000/svg" xmlns:xlink="http://www.w3.org/1999/xlink" x="0px" y="0px"
	 viewBox="0 0 1024 1024" style="enable-background:new 0 0 1024 1024;" xml:space="preserve">
<style type="text/css">
	.st0{fill:#161716;}
</style>
<g>
	<path class="st0" d="M1017,302.8c-0.9-42.1-8.9-83.8-23.6-123.2c-12.7-33.9-32.8-64.7-58.7-90c-25.5-25.7-56.2-45.7-90.1-58.5
		C805.2,16.5,763.6,8.5,721.6,7.6C667.1,5,649,4.4,512.1,4.4V4.3c-135.7,0-154,0.6-209.2,2.9c-42.1,0.9-83.8,8.9-123.2,23.6
		c-33.9,12.7-64.7,32.8-90,58.7C64,115,44,145.7,31.2,179.5C16.5,219,8.5,260.6,7.7,302.7c-2.5,54.5-3.2,72.6-3.2,209.2
		c0,135.7,0.6,154,2.9,209.2C8.3,763.3,16.3,805,31,844.5c26.4,68.2,80.3,122.2,148.5,148.7c39.5,14.7,81.1,22.7,123.2,23.6
		c55.2,2.4,73.5,2.9,209.2,2.9c135.7,0,154-0.6,209.2-2.9c42.1-0.9,83.7-8.9,123.2-23.6c68.2-26.4,122.2-80.4,148.6-148.7
		c14.7-39.5,22.7-81.1,23.6-123.2c2.4-55.2,2.9-73.5,2.9-209.2C1019.5,374.3,1019.5,356.8,1017,302.8z M925.5,717.2
		c-0.4,32.2-6.3,64.1-17.5,94.3c-17.1,44.1-52,79-96.1,96.1c-30.2,11.2-62.1,17.1-94.3,17.5c-54.8,2.8-71.1,3.3-205.3,3.3l-0.2-0.1
		c-134.5,0-150.7-0.5-205.1-2.9c-32.2-0.4-64-6.3-94.2-17.5c-44.2-17-79.1-51.9-96.1-96.1c-11.2-30.2-17.1-62.1-17.5-94.3
		c-2.4-54.5-2.9-70.7-2.9-205.1c0-134.3,0.7-150.7,3.1-205.2c0.3-32.2,6.2-64.1,17.5-94.2c17.1-44.1,52-79,96.1-96.1
		c30.2-11.2,62.1-17.1,94.3-17.4c54.4-2.4,72.3-3,205.1-3c132.8,0,150.9,0.6,205.1,3c32.2,0.3,64.1,6.2,94.3,17.5
		c44.2,17,79.1,51.9,96.1,96.1c11.2,30.1,17.2,61.9,17.6,94.1c2.4,54.6,2.9,70.8,2.9,205.1S928,662.7,925.5,717.2z"/>
	<path class="st0" d="M783.3,180.1C783.3,180.1,783.3,180.1,783.3,180.1c0.1,0,0.2-0.1,0.3-0.1L783.3,180.1z"/>
	<path class="st0" d="M783.4,180.1c0,0-0.1,0-0.1,0c-33.5,0.2-60.6,27.3-60.6,60.8c0,33.6,27.3,60.9,60.9,60.9
		c33.6,0,60.9-27.3,60.9-60.9C844.4,207.3,817,180.1,783.4,180.1z"/>
	<path class="st0" d="M512.1,251.3L512.1,251.3C368.1,251.2,251.3,368,251.3,512.1c0,144.1,116.8,260.8,260.8,260.8
		S773,656.1,773,512.1C772.8,368.1,656.1,251.5,512.1,251.3z M512.1,681.3L512.1,681.3C418.7,681.3,343,605.5,343,512.1
		c0-93.4,75.7-169.2,169.2-169.2c93.4,0,169.2,75.7,169.2,169.2C681.1,605.4,605.5,681.1,512.1,681.3z"/>
</g>
</svg>
