<?xml version="1.0" encoding="utf-8"?>
<!-- Generator: Adobe Illustrator 23.1.0, SVG Export Plug-In . SVG Version: 6.00 Build 0)  -->
<svg version="1.1" id="Capa_1" xmlns="http://www.w3.org/2000/svg" xmlns:xlink="http://www.w3.org/1999/xlink" x="0px" y="0px"
	 viewBox="0 0 1024 1024" style="enable-background:new 0 0 1024 1024;" xml:space="preserve">
<style type="text/css">
	.st0{fill:#161716;}
</style>
<g id="lupa_menos" transform="translate(0 0)">
	<path id="Trazado_12" class="st0" d="M996.2,873.3L762.5,639.6C883.1,447.4,825,193.9,632.8,73.4C440.6-47.1,187.1,10.9,66.6,203.1
		S4.1,648.8,196.3,769.3c139.5,87.5,317.7,83.2,452.9-10.8L880,989.4c32.1,32.1,84.1,32.1,116.2,0
		C1028.3,957.3,1028.3,905.3,996.2,873.3L996.2,873.3z M664.6,541.8c-12,24.9-27.6,47.8-46.4,68.1l-0.7,0.8
		c-4.4,4.8-9.1,9.4-13.9,13.9l-1.7,1.5c-113.4,103.9-289.5,96.2-393.4-17.2c-103.9-113.4-96.2-289.5,17.2-393.4
		s289.5-96.2,393.4,17.2C696.1,316.6,714.1,439.1,664.6,541.8L664.6,541.8z"/>
	<path id="Trazado_14" class="st0" d="M548.8,487.2"/>
</g>
</svg>
