<?xml version="1.0" encoding="utf-8"?>
<!-- Generator: Adobe Illustrator 23.1.0, SVG Export Plug-In . SVG Version: 6.00 Build 0)  -->
<svg version="1.1" id="clock" xmlns="http://www.w3.org/2000/svg" xmlns:xlink="http://www.w3.org/1999/xlink" x="0px" y="0px"
	 viewBox="0 0 1024 1024" style="enable-background:new 0 0 1024 1024;" xml:space="preserve">
<path id="Trazado_207" d="M916.3,269.4c-21.2,10.3-30.1,35.7-19.9,56.9c28,57.9,42.5,121.4,42.3,185.6
	c0,235.7-191,426.7-426.7,426.7S85.3,747.7,85.3,512S276.4,85.3,512,85.3c96.2-0.4,189.7,32.1,264.9,92.2
	c17.6,15.7,44.6,14.1,60.3-3.5s14.1-44.6-3.5-60.3c-1.2-1-2.4-2-3.7-2.9C608.3-64.9,286.3-27.6,110.7,194.1s-138.3,543.7,83.4,719.2
	s543.7,138.3,719.2-83.4C985,739.5,1024,627.4,1024,512c0.1-77.2-17.4-153.3-51.2-222.7C962.6,268.3,937.4,259.4,916.3,269.4z"/>
<path id="Trazado_208" d="M531.7,184c-20.5,0-37.1,16.6-37.1,37.1V481c0,20.5,16.6,37.1,37.1,37.1h185.4c20.5,0,37-16.7,37-37.1
	c0-20.4-16.6-37-37-37H568.7V221.1C568.7,200.6,552.1,184,531.7,184z"/>
</svg>
