<svg xmlns="http://www.w3.org/2000/svg" width="1023.988" height="682.276" viewBox="0 0 1023.988 682.276">
  <g id="spotify" transform="translate(-0.025 -170.824)">
    <path id="Trazado_2110" data-name="Trazado 2110" d="M804.3,760.7C597.5,637,355,632.4,117.7,684.8a47.578,47.578,0,0,0,6.4,94.5,177.19,177.19,0,0,0,34.5-7.6c428.9-87.9,581.6,81.4,629.9,81.4h0a48.193,48.193,0,0,0,15.8-92.4Z" fill="#fff"/>
    <path id="Trazado_2111" data-name="Trazado 2111" d="M889.8,549.6A1049.834,1049.834,0,0,0,93.6,457.2a58.931,58.931,0,0,0,11.2,116.2,117.241,117.241,0,0,0,34.5-7.6A938.992,938.992,0,0,1,830.7,651c31.1,16.3,29,10.3,35.7,12.1h.3a56.315,56.315,0,0,0,55.9-56.5A60.015,60.015,0,0,0,889.8,549.6Z" fill="#fff"/>
    <path id="Trazado_2112" data-name="Trazado 2112" d="M986,309.5C731.2,160.8,321.3,135.7,50.5,215h0A68.383,68.383,0,0,0,.1,284.2v2.2a66.943,66.943,0,0,0,67.5,66.2,140.369,140.369,0,0,0,37.4-7.5c238.7-66.7,607.6-37.1,813.6,86a67.066,67.066,0,0,0,37.6,11.4,70.474,70.474,0,0,0,29.8-133Z" fill="#fff"/>
  </g>
</svg>
