<svg xmlns="http://www.w3.org/2000/svg" width="27.929" height="18.656" viewBox="0 0 27.929 18.656">
  <g id="spotify-sketch" transform="translate(-6.089 -10.244)">
    <path id="Trazado_2039" data-name="Trazado 2039" d="M27.6,28.9h0c-1.3,0-5.5-4.6-17.2-2.2a2.92,2.92,0,0,1-.9.2,1.324,1.324,0,0,1-1.3-1.3,1.278,1.278,0,0,1,1.1-1.2C15.8,23,22.4,23.1,28,26.5a1.278,1.278,0,0,1,.7,1.7,1.769,1.769,0,0,1-1.1.7Z" fill="#fff"/>
    <path id="Trazado_2040" data-name="Trazado 2040" d="M29.7,23.7c-.2,0-.1.1-1-.3A25.4,25.4,0,0,0,9.8,21.1a2.92,2.92,0,0,1-.9.2,1.526,1.526,0,0,1-1.5-1.7,1.593,1.593,0,0,1,1.2-1.5,28.32,28.32,0,0,1,21.7,2.5,1.7,1.7,0,0,1,.9,1.6,1.415,1.415,0,0,1-1.5,1.5Z" fill="#fff"/>
    <path id="Trazado_2041" data-name="Trazado 2041" d="M7.4,11.4C14.8,9.3,26,10,33,14a1.967,1.967,0,0,1,.8,2.6,1.781,1.781,0,0,1-1.6,1h0a1.689,1.689,0,0,1-1-.3C25.5,14,15.4,13.2,8.9,15a3.553,3.553,0,0,1-1,.2,1.793,1.793,0,0,1-1.8-1.8v-.1a1.914,1.914,0,0,1,1.3-1.9Z" fill="#fff"/>
  </g>
</svg>
