<?xml version="1.0" encoding="utf-8"?>
<!-- Generator: Adobe Illustrator 23.1.0, SVG Export Plug-In . SVG Version: 6.00 Build 0)  -->
<svg version="1.1" id="Capa_1" xmlns="http://www.w3.org/2000/svg" xmlns:xlink="http://www.w3.org/1999/xlink" x="0px" y="0px"
	 viewBox="0 0 1024 1024" style="enable-background:new 0 0 1024 1024;" xml:space="preserve">
<style type="text/css">
	.st0{fill:#161716;}
</style>
<path class="st0" d="M2.1,832.4L2.1,832.4c95.6,61.5,207,94,320.7,93.8c168.7,3.9,330.4-67.1,441.8-193.9
	c97.6-111,152-253.3,153.3-401.1c0-8,0-16.3-0.8-27.2c41.2-29.5,76.8-66.2,104.9-108.4c-38.4,16.7-79,27.9-120.5,33
	c43.8-26,76.5-67.1,92-115.6c-41,24.3-85.8,41.5-132.6,50.7c-78.9-84.3-211.3-88.6-295.5-9.7c-42.2,39.6-66.2,94.8-66.2,152.7
	c-0.2,16,1.4,32,4.8,47.7c-168.2-8.6-324.8-88.1-431-218.7c-55.9,95.5-27.7,218,64.3,279.5c-33.1-0.8-65.5-9.7-94.5-25.7v2.3
	c0.2,99.5,70.1,185.2,167.5,205.4c-17.9,4.7-36.3,7.1-54.8,6.9c-13.3,0.3-26.5-1-39.6-3.6c27.7,85,106,143.4,195.4,145.6
	c-74.1,57.7-165.3,89.1-259.3,89.2C35.4,835.5,18.6,834.5,2.1,832.4z"/>
</svg>
