<?xml version="1.0" encoding="utf-8"?>
<!-- Generator: Adobe Illustrator 23.1.0, SVG Export Plug-In . SVG Version: 6.00 Build 0)  -->
<svg version="1.1" id="youtube" xmlns="http://www.w3.org/2000/svg" xmlns:xlink="http://www.w3.org/1999/xlink" x="0px" y="0px"
	 viewBox="0 0 1024 1024" style="enable-background:new 0 0 1024 1024;" xml:space="preserve">
<style type="text/css">
	.st0{fill:#161716;}
</style>
<path class="st0" d="M994.4,269.9c-11.7-43.2-45.5-76.9-88.7-88.7C827,159.7,512,159.7,512,159.7c-131.5-1.5-263,5.4-393.7,20.8
	c-43.2,12.3-76.8,46.3-88.7,89.6c-14.3,79.9-21.3,160.9-20.8,242c-0.5,81.1,6.4,162.1,20.8,242c11.7,43.2,45.5,76.9,88.7,88.7
	c79.6,21.6,393.7,21.6,393.7,21.6c131.5,1.5,263-5.4,393.7-20.8c43.2-11.7,76.9-45.5,88.7-88.7c14.3-79.9,21.3-160.9,20.8-242
	C1016.1,431.4,1009.1,350,994.4,269.9z M411.7,662.8V361.6l261.9,150.6L411.7,662.8z"/>
</svg>
